<?xml version="1.0" standalone="no"?>
<!DOCTYPE svg PUBLIC "-//W3C//DTD SVG 20010904//EN"
 "http://www.w3.org/TR/2001/REC-SVG-20010904/DTD/svg10.dtd">
<svg version="1.0" xmlns="http://www.w3.org/2000/svg"
 width="512.000000pt" height="512.000000pt" viewBox="0 0 512.000000 512.000000"
 preserveAspectRatio="xMidYMid meet">

<g transform="translate(0.000000,512.000000) scale(0.100000,-0.100000)"
fill="#000000" stroke="none">
<path d="M101 4783 c-109 -56 -134 -199 -48 -280 17 -17 489 -356 1047 -753
558 -398 1021 -728 1029 -735 9 -9 47 -361 136 -1295 123 -1273 124 -1282 150
-1322 30 -45 91 -78 145 -78 48 0 113 32 137 66 11 16 559 963 1218 2104 926
1605 1199 2084 1203 2116 6 55 -25 123 -74 160 l-37 29 -2436 3 c-2304 2
-2438 1 -2470 -15z m4154 -352 c-85 -53 -1912 -1105 -1926 -1108 -11 -3 -316
208 -805 557 -434 310 -791 564 -793 566 -2 2 796 4 1775 4 1745 0 1778 -1
1749 -19z m187 -323 c-11 -18 -408 -706 -882 -1528 -474 -822 -866 -1499 -871
-1504 -6 -6 -9 -5 -9 3 0 6 -41 434 -90 949 -50 515 -89 948 -88 961 3 20 150
109 978 587 536 310 976 563 978 564 2 0 -5 -15 -16 -32z"/>
</g>
</svg>
