<?xml version="1.0" standalone="no"?>
<!DOCTYPE svg PUBLIC "-//W3C//DTD SVG 20010904//EN"
 "http://www.w3.org/TR/2001/REC-SVG-20010904/DTD/svg10.dtd">
<svg version="1.0" xmlns="http://www.w3.org/2000/svg"
 width="512.000000pt" height="512.000000pt" viewBox="0 0 512.000000 512.000000"
 preserveAspectRatio="xMidYMid meet">

<g transform="translate(0.000000,512.000000) scale(0.100000,-0.100000)"
fill="#000000" stroke="none">
<path d="M595 5103 c-290 -62 -519 -294 -579 -585 -14 -69 -16 -283 -16 -1958
0 -2057 -3 -1953 57 -2095 75 -178 230 -333 409 -408 141 -60 38 -57 2094 -57
2033 0 1947 -2 2084 51 172 68 333 223 412 398 63 140 58 -25 62 2076 2 1718
1 1918 -13 1989 -60 297 -291 529 -587 590 -69 14 -276 16 -1965 15 -1637 -1
-1897 -3 -1958 -16z m3867 -294 c171 -36 310 -175 347 -347 16 -75 16 -3728 0
-3804 -16 -74 -62 -162 -115 -218 -52 -55 -155 -113 -232 -129 -76 -16 -3730
-16 -3804 0 -172 37 -310 175 -347 347 -16 75 -16 3728 0 3804 18 87 58 158
123 223 64 64 127 100 211 121 68 17 3736 20 3817 3z"/>
<path d="M2488 4289 c-23 -12 -46 -35 -58 -59 -20 -38 -20 -58 -20 -780 l0
-740 -740 0 c-723 0 -742 0 -780 -20 -45 -23 -80 -80 -80 -130 0 -50 35 -107
80 -130 38 -20 57 -20 780 -20 l740 0 0 -740 c0 -723 0 -742 20 -780 23 -45
80 -80 130 -80 50 0 107 35 130 80 20 38 20 57 20 780 l0 740 740 0 c723 0
742 0 780 20 45 23 80 80 80 130 0 50 -35 107 -80 130 -38 20 -57 20 -780 20
l-740 0 0 740 c0 723 0 742 -20 780 -37 73 -127 99 -202 59z"/>
</g>
</svg>
